<svg xmlns="http://www.w3.org/2000/svg" width="45.195" height="45.191" viewBox="0 0 45.195 45.191">
  <g id="Grupo_51" data-name="Grupo 51" transform="translate(-76.403 -496.059)">
    <g id="currency-exchange-2" transform="translate(76.655 496.309)">
      <path id="Trazado_3" data-name="Trazado 3" d="M23.475,22.88a4.956,4.956,0,0,1-1.721,3.881,8.75,8.75,0,0,1-4.97,1.884v3.522H14.626V28.74a16.743,16.743,0,0,1-6.609-1.23V24.081a16.644,16.644,0,0,0,3.264,1.145,14.781,14.781,0,0,0,3.345.479V19.631l-1.358-.5a9.613,9.613,0,0,1-3.891-2.443,5.191,5.191,0,0,1-1.23-3.514A4.574,4.574,0,0,1,9.893,9.483a8.645,8.645,0,0,1,4.735-1.746V5h2.158V7.68a17.9,17.9,0,0,1,6.252,1.331l-1.188,2.975a17.464,17.464,0,0,0-5.067-1.2V16.7l1.234.472a11.255,11.255,0,0,1,4.269,2.5,4.628,4.628,0,0,1,1.188,3.212ZM11.962,13.136a2.171,2.171,0,0,0,.582,1.541A5.866,5.866,0,0,0,14.632,15.9V10.851a3.8,3.8,0,0,0-1.983.8A1.911,1.911,0,0,0,11.962,13.136Zm7.68,9.986a2.02,2.02,0,0,0-.658-1.552,6.726,6.726,0,0,0-2.2-1.178v5.177Q19.643,25.137,19.642,23.122Z" transform="translate(6.599 3.762)" fill="#1f64ff"/>
      <path id="Trazado_4" data-name="Trazado 4" d="M24.971,24.454,17.5,25.521l1.067-7.471Z" transform="translate(15.518 16.035)" fill="#1f64ff"/>
      <path id="Trazado_5" data-name="Trazado 5" d="M9.054,9.571,10.121,2.1,2.65,3.167Z" transform="translate(1.552 1.035)" fill="#1f64ff"/>
      <path id="Trazado_6" data-name="Trazado 6" d="M16.027,26.994l1.657-11.6,9.939,9.939ZM19.451,20.7l-.478,3.346,3.346-.478Z" transform="translate(15.518 16.035)" fill="#1f64ff"/>
      <path id="Trazado_7" data-name="Trazado 7" d="M9.938,12.223,0,2.283,11.594.627ZM5.3,4.051,8.17,6.919l.478-3.346Z" transform="translate(1.552 1.035)" fill="#1f64ff"/>
      <path id="Trazado_8" data-name="Trazado 8" d="M27.977,38.322l-1.768-1.768A20.1,20.1,0,0,0,12,2.25V-.25A22.6,22.6,0,0,1,27.977,38.322Z" transform="translate(10.345)" fill="#1f64ff"/>
      <path id="Trazado_9" data-name="Trazado 9" d="M22.345,41.911A22.6,22.6,0,0,1,6.368,3.338L8.136,5.106a20.1,20.1,0,0,0,14.209,34.3Z" transform="translate(0 3.03)" fill="#1f64ff"/>
    </g>
  </g>
</svg>
