<svg xmlns="http://www.w3.org/2000/svg" width="45.691" height="45.691" viewBox="0 0 45.691 45.691">
  <g id="metrics" transform="translate(1 1)">
    <path id="Elipse_1" data-name="Elipse 1" d="M8-1.5A9.5,9.5,0,1,1-1.5,8,9.511,9.511,0,0,1,8-1.5Zm0,16A6.5,6.5,0,1,0,1.5,8,6.507,6.507,0,0,0,8,14.5Z" transform="translate(0.5 27.191)" fill="#1f64ff"/>
    <path id="Trazado_13" data-name="Trazado 13" d="M37.429,36.929H25.786a1.5,1.5,0,1,1,0-3H35.9A33.142,33.142,0,0,0,33.3,22.417a33.319,33.319,0,0,0-7.165-10.626A33.319,33.319,0,0,0,15.512,4.626,33.142,33.142,0,0,0,4,2.033v10.11a1.5,1.5,0,0,1-3,0V.5A1.5,1.5,0,0,1,2.5-1,36.319,36.319,0,0,1,28.259,9.67a36.305,36.305,0,0,1,7.806,11.579,36.2,36.2,0,0,1,2.863,14.18A1.5,1.5,0,0,1,37.429,36.929Z" transform="translate(5.762)" fill="#1f64ff"/>
    <path id="Línea_6" data-name="Línea 6" d="M0,11.536A1.5,1.5,0,0,1-1.061,11.1a1.5,1.5,0,0,1,0-2.121L8.976-1.061a1.5,1.5,0,0,1,2.121,0,1.5,1.5,0,0,1,0,2.121L1.061,11.1A1.5,1.5,0,0,1,0,11.536Z" transform="translate(14.75 18.905)" fill="#1f64ff"/>
  </g>
</svg>
