<?xml version="1.0" encoding="utf-8"?>
<!-- Generator: Adobe Illustrator 27.7.0, SVG Export Plug-In . SVG Version: 6.00 Build 0)  -->
<svg version="1.1" id="Capa_1" xmlns="http://www.w3.org/2000/svg" xmlns:xlink="http://www.w3.org/1999/xlink" x="0px" y="0px"
	 viewBox="0 0 300 300" style="enable-background:new 0 0 300 300;" xml:space="preserve">
<g>
	<path d="M61.21,2.34c-6.23,0.19-11.19,5.3-11.19,11.53v76.23c0,6.37,5.16,11.54,11.54,11.54s11.54-5.16,11.54-11.54V25.64
		c40.69,2.27,177.13,22.81,200.71,194.99h-66.71c-6.37,0-11.54,5.16-11.54,11.54c0,6.37,5.16,11.54,11.54,11.54h79.7
		c3.26,0,6.37-1.38,8.55-3.8c2.19-2.42,3.25-5.65,2.92-8.89C274.93-1.34,63.4,2.3,61.21,2.34z"/>
	<path d="M161.16,121.87l-58.89,60.07c-10.41-7.4-23.1-11.8-36.83-11.8c-35.16,0-63.77,28.6-63.77,63.77
		c0,35.16,28.6,63.76,63.77,63.76c35.16,0,63.76-28.6,63.76-63.76c0-13.12-3.99-25.31-10.8-35.46l59.23-60.42
		c4.46-4.55,4.39-11.85-0.16-16.31C172.94,117.25,165.63,117.33,161.16,121.87z M65.45,274.59c-22.44,0-40.69-18.25-40.69-40.69
		c0-22.44,18.25-40.69,40.69-40.69c22.43,0,40.69,18.25,40.69,40.69C106.14,256.34,87.89,274.59,65.45,274.59z"/>
</g>
</svg>
