<?xml version="1.0" encoding="utf-8"?>
<!-- Generator: Adobe Illustrator 27.7.0, SVG Export Plug-In . SVG Version: 6.00 Build 0)  -->
<svg version="1.1" id="Capa_1" xmlns="http://www.w3.org/2000/svg" xmlns:xlink="http://www.w3.org/1999/xlink" x="0px" y="0px"
	 viewBox="0 0 300 300" style="enable-background:new 0 0 300 300;" xml:space="preserve">
<g>
	<path d="M227.02,117.74c-1.31-2.2-1.3-3.28,0.04-5.08c2.22-3,4.27-6.17,6.26-9.24c1.15-1.78,2.3-3.56,3.48-5.31
		c2-2.96,2.12-5.86,0.36-8.86c-3.5-5.96-6.94-11.96-10.39-17.96l-0.35-0.6c-1.69-2.95-4.2-4.37-7.58-4.1
		c-2.23,0.15-4.46,0.27-6.69,0.39c-3.59,0.19-7.19,0.39-10.77,0.71c-2.48,0.22-3.5-0.3-4.62-2.33c-3.31-5.99-6.74-11.91-10.17-17.83
		c-2.88-4.97-5.77-9.95-8.58-14.96c-3.9-6.96-12.86-11.28-19.98-9.62c-6.29,1.45-10.1,5.43-13,9.13
		c-12.59,16.07-25.19,32.13-37.78,48.19c-11.39,14.52-22.78,29.03-34.16,43.56c-1.3,1.65-2.74,2.9-4.53,3.93
		c-8.5,4.88-16.99,9.78-25.48,14.68c-6.46,3.73-12.92,7.46-19.38,11.18c-9.07,5.22-15.42,12.47-18.85,21.55
		c-0.8,2.11-1.4,4.31-1.97,6.43c-0.26,0.97-0.52,1.93-0.8,2.88l-0.05,11.26l-0.14,0.6l0.65,0.37l0.08,0.48
		c1.97,11.8,9.02,22.17,19.35,28.43c10.24,6.22,22.55,7.69,33.78,4.04c1.84-0.6,2.21-0.31,3.11,1.28
		c9.78,17.15,18.48,32.23,26.59,46.11c4.43,7.58,11.56,12.36,19.56,13.1c0.72,0.07,1.43,0.1,2.14,0.1c6.99,0,13.69-3.17,18.63-8.89
		c6.71-7.76,7.35-18.77,1.65-28.71c-5.07-8.86-10.17-17.71-15.34-26.52c-0.39-0.67-0.43-0.9-0.44-0.9c0.01-0.01,0.12-0.19,0.72-0.51
		c2.95-1.56,5.87-3.28,8.68-4.94l2.78-1.63c5.36-3.13,6.31-6.57,3.28-11.9c-1.79-3.16-3.6-6.32-5.46-9.43
		c-0.07-0.12-0.18-0.3-0.28-0.49c0.09-0.02,0.19-0.03,0.31-0.04c1.54-0.14,3.04-0.48,4.49-0.82c0.69-0.16,1.39-0.32,2.09-0.46
		l17.91-3.52c22.81-4.48,45.62-8.96,68.43-13.43c3.02-0.59,6.04-1.14,9.06-1.7c2.5-0.46,5-0.92,7.5-1.4
		c6.19-1.18,11.21-5,13.78-10.48c2.53-5.39,2.27-11.57-0.71-16.97C238.13,136.48,231.83,125.81,227.02,117.74z M206.2,81.55
		c3.12-0.16,6.25-0.33,9.37-0.57c0.31-0.03,0.42-0.04,0.77,0.59c2.12,3.72,4.27,7.43,6.43,11.13c0.25,0.43,0.25,0.54-0.02,0.93
		c-1.46,2.11-2.87,4.25-4.38,6.54l-0.75,1.14l-2.58-4.47C212.05,91.63,209.14,86.58,206.2,81.55z M224.68,159.37
		c-18.95-32.78-37.87-65.57-56.8-98.36l-2.58-4.45c-2.58-4.45-5.16-8.89-7.65-13.4c-0.2-0.36-0.49-0.72-0.79-1.08
		c-0.82-0.98-0.77-1.05-0.45-1.48l0.46-0.62c1.4-1.91,2.38-3.1,4.24-3.1c0.07,0,0.14,0,0.22,0.01h0.13
		c2.15-0.12,3.27,1.15,4.54,3.35c5.26,9.14,10.54,18.28,15.82,27.42l48.82,84.59c0.57,0.99,1.17,2.04,1.61,3.14
		c0.63,1.56,0.27,2.97-1.11,4.32c-1.29,1.25-3.08,1.71-5.54,1.51c-0.13-0.11-0.33-0.6-0.46-0.89
		C224.99,159.98,224.84,159.65,224.68,159.37z M113.11,182.04c-9.27-16.23-18.63-32.41-28-48.58c-0.63-1.09-0.63-1.3-0.05-2.04
		c16.53-20.97,33.02-41.97,49.5-62.98L146.8,52.9l64.28,111.35l-70.7,13.87c-8.37,1.63-16.74,3.26-25.1,4.95
		C114.06,183.33,113.76,183.18,113.11,182.04z M102.15,209.21c-0.5-1.13-1.02-2.29-1.71-3.26c-0.26-0.37-0.34-0.57-0.37-0.59
		c0.06-0.07,0.24-0.22,0.77-0.49c0.97-0.5,1.95-1.19,2.89-1.87c1.27-0.91,3-2.17,3.75-1.95c1.14,0.31,1.96,2.17,2.75,3.96
		c0.46,1.04,0.93,2.1,1.52,3.04c0.1,0.17,0.2,0.34,0.29,0.51c-0.06,0.04-0.13,0.07-0.19,0.1l-0.35,0.18
		c-0.82,0.46-1.66,1.05-2.51,1.64c-1.6,1.11-3.38,2.39-4.51,2.19C103.62,212.5,102.84,210.75,102.15,209.21z M100.41,188.62
		c-0.01,0.03-0.09,0.27-1.05,0.82c-12.92,7.36-26.38,15.11-41.17,23.72c-4.22,2.46-9.06,4.06-12.64,4.19
		c-13.52,0.06-24.52-7.48-28.21-19.3c-3.58-11.46,0.91-24.17,10.67-30.23c9.68-6,19.74-11.76,29.47-17.33
		c4.09-2.34,8.17-4.68,12.24-7.04c1.47-0.86,2.87-1.67,3.38-1.67c0.03,0,0.06,0.01,0.08,0.01c0.42,0.11,1.29,1.62,2.22,3.23
		l5.87,10.18c6.18,10.74,12.37,21.48,18.63,32.17C100.47,188.33,100.42,188.6,100.41,188.62z M97.75,270.03
		c-4.06-7.09-8.15-14.17-12.24-21.23l-7.55-13.07c-2.35-4.09-4.7-8.17-7.1-12.23c-0.32-0.54-0.49-0.89-0.51-0.95
		c0.01-0.01,0.11-0.18,0.71-0.51c4.55-2.46,9.07-5.13,13.44-7.7l2.45-1.44c0.18-0.11,0.74-0.44,0.84-0.47
		c0.01,0.01,0.17,0.1,0.48,0.64c4.18,7.32,8.4,14.62,12.62,21.91c4.89,8.45,9.78,16.9,14.6,25.39c1.98,3.5,2.09,7.25,0.31,10.29
		c-1.96,3.34-5.86,5.25-10.72,5.25c-0.03,0-0.07,0-0.1,0C102.59,275.84,99.76,273.53,97.75,270.03z"/>
	<path d="M294.81,35.19c-2.17-1.32-4.9-1.31-7.31-0.01c-11.58,6.23-22.91,12.61-31.48,17.47c-1.87,1.06-3.18,2.66-3.69,4.49
		c-0.48,1.76-0.22,3.65,0.74,5.34c1.3,2.29,3.52,3.53,5.94,3.53c1.24,0,2.53-0.33,3.77-1c10.68-5.81,21.44-11.82,31.48-17.46
		c2.51-1.41,3.85-3.55,3.87-6.18C298.16,38.77,296.92,36.47,294.81,35.19z"/>
	<path d="M227.31,45.83c0.6,0.16,1.19,0.23,1.77,0.23c3.14,0,5.82-2.26,6.94-6.06c0.46-1.56,0.87-3.14,1.28-4.72l4.5-17.12
		l0.04-0.25c0.23-3.9-2.11-7.25-5.56-7.98c-3.69-0.79-7.18,1.42-8.27,5.25c-2.27,7.95-4.16,14.99-5.75,21.52
		C221.16,41.17,223.15,44.75,227.31,45.83z"/>
	<path d="M285.07,94.23c-3.7-1.08-7.43-2.05-11.16-3.03l-4.55-1.19c-0.72-0.19-1.42-0.4-2.12-0.61c-1.79-0.54-3.48-1.04-5.08-1.13
		h-0.04c-4.07,0.02-7.16,2.25-7.74,5.8c-0.61,3.75,1.74,7.03,5.84,8.17c6.96,1.92,13.94,3.77,20.94,5.58
		c0.74,0.19,1.48,0.28,2.19,0.28c3.31,0,6.1-2.02,7-5.33C291.35,99.08,289.09,95.41,285.07,94.23z"/>
	<path d="M54.95,188.54c-1.68,0.9-3.32,1.87-4.96,2.84l-2.25,1.32c-4.53,2.62-5.26,2.52-8.76-1.2c-2.91-3.09-6.49-3.57-9.6-1.29
		c-3.16,2.32-3.76,6.39-1.46,9.89c3.63,5.53,8.81,8.37,15.42,8.45c0.24,0.01,0.48,0.02,0.71,0.02c2.73,0,5.3-0.66,7.66-1.95
		l1.08-0.6c3.11-1.7,6.32-3.46,9.41-5.34c3.72-2.26,4.96-6.4,2.97-9.83C63.1,187.28,58.99,186.35,54.95,188.54z"/>
	<path d="M71.98,182.53c-0.15,3.9,2.9,7.21,6.8,7.37c0.08,0,0.16,0.01,0.25,0.01c3.58,0,6.8-3.07,6.94-6.7
		c0.08-1.92-0.57-3.72-1.83-5.07c-1.27-1.37-3.04-2.15-4.99-2.21C75.35,175.93,72.13,178.7,71.98,182.53z"/>
</g>
</svg>
