<?xml version="1.0" encoding="utf-8"?>
<!-- Generator: Adobe Illustrator 27.7.0, SVG Export Plug-In . SVG Version: 6.00 Build 0)  -->
<svg version="1.1"  id="Capa_1" xmlns="http://www.w3.org/2000/svg" xmlns:xlink="http://www.w3.org/1999/xlink" x="0px" y="0px"
	 viewBox="0 0 300 300" style="enable-background:new 0 0 300 300;" xml:space="preserve">
<g id="Xyao8h_00000052813975916086864550000012879409134655286163_">
	<g>
		<path d="M117.6,1.86c10.33,0,20.65-0.02,30.98,0.01c7.38,0.02,12.57,4.6,12.64,11.12c0.07,6.62-5.21,11.33-12.78,11.34
			c-19.47,0.02-38.93-0.01-58.4,0.01c-28.45,0.03-50.42,21.74-50.48,50.15c-0.1,50.21-0.09,100.42,0,150.62
			c0.05,28.45,21.96,50.22,50.37,50.27c19.7,0.03,39.41-0.03,59.11,0.02c8.69,0.02,14.28,7.37,11.42,15.03
			c-1.69,4.55-5.21,7.35-9.99,7.33c-23.02-0.11-46.08,1.28-69.04-0.59C51.22,294.7,25.46,271.29,19,241.64
			c-1.22-5.6-1.73-11.25-1.73-16.95c-0.03-49.85-0.12-99.7,0.02-149.55c0.1-34.13,21.17-61.9,53.2-70.71
			c6.21-1.71,12.54-2.53,18.97-2.55C98.84,1.83,108.22,1.86,117.6,1.86z"/>
		<path d="M244.52,162.02c-2.47-1.26-3.91-0.91-5.28-0.91c-39.4-0.02-78.79-0.01-118.19-0.03c-6.26,0-10.99-3.25-12.22-8.29
			c-1.75-7.23,3.07-13.72,10.53-14.16c1.18-0.07,2.37-0.02,3.56-0.02c38.8,0,77.61,0,116.41,0c1.36,0,2.73,0,4.25,0
			c-0.47-1.88-1.66-2.55-2.54-3.44c-12.48-12.52-24.97-25.04-37.51-37.51c-2.85-2.84-4.59-6.09-3.98-10.17
			c0.67-4.47,3.16-7.73,7.5-9.1c4.24-1.34,8.24-0.56,11.51,2.67c5.15,5.09,10.26,10.21,15.38,15.33
			c14.85,14.85,29.72,29.69,44.54,44.57c5.72,5.74,5.72,12.05,0,17.78c-19.61,19.66-39.25,39.29-58.9,58.9
			c-4.64,4.63-10.36,5.3-15.1,1.95c-4.32-3.05-5.87-8.71-3.77-13.63c0.81-1.91,2.24-3.32,3.67-4.75
			c12.17-12.17,24.32-24.34,36.52-36.49C241.81,163.83,242.98,163.17,244.52,162.02z"/>
	</g>
</g>
</svg>
