<svg xmlns="http://www.w3.org/2000/svg" width="50" height="50" viewBox="0 0 50 50">
  <g id="MDI_web" data-name="MDI / web" transform="translate(0 0.031)">
    <rect id="Boundary" width="50" height="50" transform="translate(0 -0.031)" fill="#1f64ff" opacity="0"/>
    <path id="Path_web" data-name="Path / web" d="M31.9,26.984a34.385,34.385,0,0,0,.291-4.164,34.385,34.385,0,0,0-.291-4.164h7.037a16.286,16.286,0,0,1,0,8.328M28.213,38.56a32.582,32.582,0,0,0,2.873-7.412h6.142a16.718,16.718,0,0,1-9.015,7.412m-.521-11.576H17.948a26.192,26.192,0,0,1,0-8.328h9.744a30.366,30.366,0,0,1,.333,4.164,30.632,30.632,0,0,1-.333,4.164M22.82,39.393a28.239,28.239,0,0,1-3.977-8.245H26.8a28.238,28.238,0,0,1-3.977,8.245m-8.328-24.9H8.413A16.5,16.5,0,0,1,17.407,7.08a35.882,35.882,0,0,0-2.915,7.412M8.413,31.148h6.08a35.882,35.882,0,0,0,2.915,7.412,16.673,16.673,0,0,1-8.994-7.412M6.705,26.984a16.286,16.286,0,0,1,0-8.328h7.037a34.385,34.385,0,0,0-.291,4.164,34.385,34.385,0,0,0,.291,4.164M22.82,6.227A28.355,28.355,0,0,1,26.8,14.492H18.844A28.355,28.355,0,0,1,22.82,6.227m14.408,8.266H31.086A32.582,32.582,0,0,0,28.213,7.08a16.629,16.629,0,0,1,9.015,7.412M22.82,2a20.82,20.82,0,1,0,20.82,20.82A20.841,20.841,0,0,0,22.82,2Z" transform="translate(2.164 2.164)" fill="#1f64ff"/>
  </g>
</svg>
