<?xml version="1.0" encoding="utf-8"?>
<!-- Generator: Adobe Illustrator 27.7.0, SVG Export Plug-In . SVG Version: 6.00 Build 0)  -->
<svg version="1.1" id="Capa_1" xmlns="http://www.w3.org/2000/svg" xmlns:xlink="http://www.w3.org/1999/xlink" x="0px" y="0px"
	 viewBox="0 0 400 150" style="enable-background:new 0 0 400 150;" xml:space="preserve">
<style type="text/css">
	.st0{fill:url(#SVGID_1_);}
	.st1{fill:#147BB9;}
	.st2{fill:#020203;}
</style>
<g>
	<linearGradient id="SVGID_1_" gradientUnits="userSpaceOnUse" x1="11.5969" y1="35.4123" x2="44.8689" y2="108.3607">
		<stop  offset="0.4116" style="stop-color:#147BB9"/>
		<stop  offset="0.7358" style="stop-color:#203A74"/>
		<stop  offset="1" style="stop-color:#221A16"/>
	</linearGradient>
	<path class="st0" d="M3.94,39.47l24.91,68.64h25.1L33.51,48.72c-1.91-5.54-7.12-9.26-12.97-9.26H3.94z"/>
	<path class="st1" d="M78.95,39.47l-24.91,68.64h-25.1l20.44-59.39c1.91-5.54,7.12-9.26,12.97-9.26H78.95z"/>
	<path class="st1" d="M90.11,13.97c-5.36,0-9.56,4.2-9.56,9.56c0,5.52,4.11,9.68,9.56,9.68c5.52,0,9.68-4.16,9.68-9.68
		C99.78,18.08,95.62,13.97,90.11,13.97z"/>
	<rect x="82.5" y="39.47" class="st2" width="14.84" height="68.64"/>
	<path class="st2" d="M130.65,21.04h-14.23V38.9c0,0.57-0.11,0.57-0.45,0.57h-12.12v13.38h11.96v33.51
		c0,13.83,7.84,21.76,21.51,21.76h12V94.49h-11.39c-5.31,0-7.28-2.24-7.28-8.26V52.84h19.52V39.47h-19.52V21.04z"/>
	<path class="st2" d="M191.73,37.88c-7.98,0-13.91,2.96-17.77,6.62v-33.1h-14.84v96.7h14.84V66.96c0-8.46,6.64-14.84,15.45-14.84
		c6.95,0,13.99,4.85,13.99,14.11v41.88h14.84V65.61C218.24,49.28,207.34,37.88,191.73,37.88z"/>
	<path class="st2" d="M279.89,45.97c-3.86-3.72-10.51-8.09-20.46-8.09c-19.39,0-33.47,15.15-33.47,36.03
		c0,21.07,14.06,35.78,34.2,35.78c7.79,0,14.74-2.78,20.09-7.95v6.36h14.48V39.47h-14.84V45.97z M280.25,73.91
		c0,15.06-10.1,21.92-19.48,21.92c-11.98,0-19.72-8.6-19.72-21.92c0-12.98,8.01-22.04,19.48-22.04
		C272.51,51.87,280.25,60.52,280.25,73.91z"/>
	<path class="st2" d="M339.7,37.88c-7.88,0-13.7,2.86-17.53,6.54v-4.95h-14.84v68.64h14.84V67.69c0-8.88,6.54-15.58,15.21-15.58
		c7.96,0,13.75,5.94,13.75,14.11v41.88h14.84V65.61C365.97,49.28,355.17,37.88,339.7,37.88z"/>
	<rect x="378.58" y="39.47" class="st2" width="14.84" height="68.64"/>
	<path class="st2" d="M386.18,33.2c5.52,0,9.68-4.16,9.68-9.68c0-5.45-4.16-9.56-9.68-9.56c-5.36,0-9.56,4.2-9.56,9.56
		C376.63,29.04,380.73,33.2,386.18,33.2z"/>
	<g>
		<path d="M308.38,120.15h2.58l6.73,15.05l6.73-15.05h2.55v18.21h-2.39v-13.58l-6.05,13.58h-1.68l-6.08-13.6v13.6h-2.39V120.15z"/>
		<path d="M337.26,138.59c-4.1,0-7.13-2.89-7.13-7.47c0-4.55,2.92-7.42,7.13-7.42c4.18,0,6.92,2.95,6.92,6.89
			c0,0.53-0.03,0.95-0.08,1.45h-11.52c0.18,2.92,2.24,4.53,4.68,4.53c2.16,0,3.53-1.1,4.05-2.66h2.58
			C343.16,136.54,340.84,138.59,337.26,138.59z M332.61,130.1h9.1c0.03-2.82-2.08-4.37-4.55-4.37
			C334.82,125.73,332.87,127.28,332.61,130.1z M339.74,117.78v2.08l-5.6,3v-1.79L339.74,117.78z"/>
		<path d="M351.44,132.99l-3.29,5.37h-2.5l4.66-7.16l-4.66-7.26h2.71l3.42,5.34l3.26-5.34h2.5l-4.63,7.13l4.66,7.29h-2.71
			L351.44,132.99z"/>
		<path d="M359.55,119.97c0-0.92,0.71-1.63,1.63-1.63c0.87,0,1.58,0.71,1.58,1.63s-0.71,1.63-1.58,1.63
			C360.26,121.6,359.55,120.89,359.55,119.97z M359.94,123.94h2.39v14.42h-2.39V123.94z"/>
		<path d="M372.54,123.7c3.58,0,5.92,1.84,6.66,4.87h-2.58c-0.5-1.74-1.95-2.84-4.08-2.84c-2.63,0-4.58,1.87-4.58,5.39
			c0,3.58,1.95,5.45,4.58,5.45c2.13,0,3.55-1.03,4.08-2.84h2.58c-0.74,2.87-3.08,4.87-6.66,4.87c-4.1,0-7.02-2.89-7.02-7.47
			C365.52,126.6,368.44,123.7,372.54,123.7z"/>
		<path d="M388.67,138.59c-4.08,0-7.18-2.89-7.18-7.47c0-4.55,3.21-7.42,7.29-7.42c4.1,0,7.29,2.87,7.29,7.42
			C396.06,135.7,392.78,138.59,388.67,138.59z M388.67,136.49c2.5,0,4.95-1.71,4.95-5.37c0-3.63-2.39-5.34-4.87-5.34
			c-2.53,0-4.81,1.71-4.81,5.34C383.94,134.78,386.17,136.49,388.67,136.49z"/>
	</g>
</g>
</svg>
